<svg width="74" height="100" viewBox="0 0 74 100" fill="none" xmlns="http://www.w3.org/2000/svg">
<path d="M72.4851 42.8188C71.9185 35.4528 67.0787 27.0951 60.9875 22.8927C48.7108 14.4643 36.3396 7.33435 24.0629 1.57374C21.0173 0.133582 18.2787 0.13358 16.2247 1.31403L5.24648 7.59404C3.16888 8.75089 1.77594 11.1354 1.49263 14.5351C0.335789 28.0395 0.335789 42.323 1.49263 57.1495C2.05925 64.5155 6.89911 72.8732 12.9903 77.0756C25.267 85.504 37.6381 92.6339 49.9149 98.3946C52.7952 99.7403 55.3922 99.8111 57.3989 98.8195L57.5642 98.7251C57.5642 98.7251 57.7531 98.607 57.8711 98.5598L68.7549 92.327C70.8089 91.1466 72.1782 88.7857 72.4851 85.4096C73.642 71.9052 73.642 57.6217 72.4851 42.7952V42.8188Z" fill="#021433"/>
<path d="M54.3999 100C52.9362 100 51.3544 99.6223 49.7253 98.8432C37.4486 93.0825 25.0066 85.9054 12.7535 77.5005C6.56794 73.2509 1.63364 64.728 1.04341 57.2439C-0.11343 42.4174 -0.11343 28.0395 1.04341 14.5351C1.32672 11.1118 2.74327 8.53841 4.98614 7.23992H5.03336L16.0116 0.912682C18.2544 -0.385818 21.182 -0.291367 24.2748 1.14879C36.5515 6.9094 48.9935 14.0865 61.2466 22.4914C67.4322 26.741 72.3665 35.2639 72.9567 42.7716C74.1135 57.5981 74.1135 71.976 72.9567 85.4804C72.6734 88.9037 71.2568 91.5007 68.9904 92.7756L58.1066 99.0084C58.1066 99.0084 57.9177 99.1265 57.7996 99.1737L57.6344 99.2681C57.6344 99.2681 57.5399 99.3153 57.4927 99.3153C56.5484 99.7639 55.5096 100 54.3999 100ZM5.55275 7.99541H5.50553C3.49876 9.15225 2.24748 11.4896 1.98778 14.606C0.830937 28.0631 0.830937 42.3702 1.98778 57.1495C2.5544 64.3739 7.29982 72.6135 13.2729 76.7214C25.5024 85.1027 37.8972 92.2562 50.1267 97.9932C52.7945 99.2445 55.2499 99.3862 57.1858 98.4418C57.2094 98.4418 57.233 98.4182 57.2802 98.4182L57.3511 98.371C57.3511 98.371 57.5399 98.2529 57.6344 98.2057L68.5182 91.9729C70.5013 90.8397 71.729 88.526 72.0123 85.4096C73.1692 71.9524 73.1692 57.6453 72.0123 42.866C71.4457 35.6417 66.7003 27.4021 60.7272 23.2941C48.4977 14.9129 36.1029 7.75932 23.8734 2.02231C21.0639 0.700203 18.4433 0.605778 16.4838 1.73901L5.55275 7.99541Z" fill="#021433"/>
<path d="M70.7385 43.2915C70.1719 36.1615 65.5209 28.0636 59.6186 24.0028C47.7433 15.8577 35.7735 8.94023 23.8745 3.36849C20.9233 1.97556 18.2791 1.97555 16.296 3.10879L5.67188 9.19994L12.0227 23.2237L13.8878 22.4446C13.6754 31.298 13.8878 40.4584 14.6433 49.8312C15.21 56.9611 19.8609 65.059 25.7632 69.1198C31.996 73.393 38.2288 77.3121 44.4852 80.8771L56.1481 97.5215L67.1499 91.2415C69.1567 90.1083 70.4788 87.7946 70.7621 84.5365C71.8717 71.4571 71.8717 57.6458 70.7621 43.2678L70.7385 43.2915Z" fill="#F0FEFF"/>
<path d="M56.1467 97.5676L67.1485 91.2876C69.1553 90.1543 70.4774 87.8406 70.7607 84.5826C71.8703 71.5032 71.8703 57.6919 70.7607 43.3139C70.5246 40.2684 69.5094 37.0811 67.9984 34.0828L22.5273 60.3361L23.0704 66.923C23.9439 67.7493 24.8174 68.5284 25.7618 69.1659C31.9946 73.4391 38.2274 77.3582 44.4838 80.9232L56.1467 97.5676Z" fill="#C7F2F9"/>
<path d="M56.1474 98.0406C56.0057 98.0406 55.8641 97.9698 55.7696 97.8281L44.1776 81.2546C37.8976 77.666 31.6175 73.7233 25.5028 69.5209C19.5061 65.4129 14.7371 57.1497 14.1704 49.8781C13.4622 40.8358 13.2025 31.8408 13.3913 23.1526L12.1873 23.6484C11.9512 23.7429 11.6915 23.6484 11.5734 23.4123L5.22259 9.38853C5.12816 9.17605 5.2226 8.91635 5.41147 8.77469L16.0356 2.68355C18.2076 1.43226 21.0407 1.50311 24.0626 2.91965C35.938 8.49139 48.0023 15.4561 59.8776 23.6012C65.8743 27.7092 70.6433 35.9723 71.21 43.2439C72.3196 57.5983 72.3196 71.504 71.21 84.5835C70.9267 87.9123 69.5573 90.4149 67.3617 91.6662L56.3599 97.9462C56.3599 97.9462 56.1946 98.017 56.1238 98.017L56.1474 98.0406ZM13.8871 21.9958C13.8871 21.9958 14.076 22.0194 14.1468 22.0902C14.2885 22.1846 14.3593 22.3263 14.3593 22.4916C14.1468 31.3686 14.3829 40.5761 15.1148 49.8309C15.6578 56.8192 20.2616 64.799 26.0458 68.7654C32.1606 72.9678 38.4642 76.9105 44.7442 80.5227C44.815 80.5463 44.8622 80.6171 44.8858 80.6644L56.289 96.9546L66.9131 90.8871C68.8255 89.801 70.0295 87.5582 70.2892 84.5598C71.3988 71.5276 71.3988 57.6691 70.2892 43.362C69.7462 36.3737 65.1424 28.3939 59.3582 24.4275C47.5301 16.306 35.513 9.38854 23.6849 3.8404C20.9698 2.56551 18.4201 2.47107 16.5313 3.55709L6.285 9.43574L12.2581 22.6332L13.6983 22.043C13.6983 22.043 13.8163 21.9958 13.8871 21.9958Z" fill="#021433"/>
<path d="M48.8994 97.1198C37.024 91.5481 25.0542 84.6306 13.1552 76.4855C7.25295 72.4247 2.57835 64.3504 2.03535 57.1969C0.925718 42.819 0.925718 29.0076 2.03535 15.9282C2.60196 9.4357 7.25295 6.74427 13.1552 9.50653C25.0306 15.0783 37.0004 21.9957 48.8994 30.1409C54.8016 34.2016 59.4762 42.2759 60.0192 49.4295C61.1289 63.8074 61.1289 77.6188 60.0192 90.6982C59.4526 97.1907 54.8016 99.8821 48.8994 97.1198Z" fill="#D4F7F9"/>
<path opacity="0.9" d="M60.0189 49.4299C59.4523 42.3 54.8013 34.2021 48.899 30.1413C46.3493 28.3942 39.5498 24.0502 37.0001 22.4211L5.00977 66.9007C6.35548 70.1823 9.84963 75.2819 13.1785 76.4623C22.5749 82.9076 32.0186 88.5266 41.415 93.3901L60.798 66.4285C60.7036 60.8331 60.4911 55.1905 60.0425 49.4063L60.0189 49.4299Z" fill="url(#paint0_linear_979_25063)"/>
<path opacity="0.9" d="M13.1554 9.52948C7.25317 6.76722 2.57857 9.45865 2.03556 15.9512C1.23285 25.4656 1.02037 35.3814 1.39811 45.6042L23.567 14.7707C20.0965 12.9292 16.626 11.1585 13.179 9.52948H13.1554Z" fill="url(#paint1_linear_979_25063)"/>
<path d="M53.2666 98.6771C51.85 98.6771 50.2918 98.2993 48.71 97.5675C36.8347 91.9957 24.794 85.0546 12.895 76.9095C6.89834 72.7779 2.12931 64.5383 1.56269 57.2668C0.453062 42.9124 0.453062 29.0067 1.56269 15.9272C1.846 12.622 3.19172 10.1194 5.36375 8.86813C7.53579 7.61685 10.3689 7.71128 13.3672 9.10422C25.2426 14.676 37.3068 21.6406 49.1822 29.7858C55.1789 33.8938 59.9479 42.1569 60.5146 49.4285C61.6242 63.7829 61.6242 77.6886 60.5146 90.768C60.2313 94.0733 58.8855 96.5759 56.7135 97.8272C55.6983 98.4174 54.5415 98.7007 53.2666 98.7007V98.6771ZM49.1114 96.6939C51.8264 97.9688 54.3526 98.0632 56.2413 96.9772C58.13 95.8912 59.3105 93.6483 59.5702 90.65C60.6798 77.6178 60.6798 63.7593 59.5702 49.4522C59.0272 42.4639 54.4234 34.484 48.6392 30.5177C36.811 22.3961 24.794 15.4787 12.9659 9.93053C10.2508 8.65564 7.72466 8.56122 5.83594 9.64724C3.94721 10.7333 2.76675 12.9761 2.50705 15.9745C1.39742 29.0067 1.39742 42.8652 2.50705 57.1723C3.05006 64.1606 7.65383 72.1169 13.4381 76.1068C25.2662 84.2283 37.2596 91.1458 49.1114 96.6939Z" fill="#021433"/>
<circle cx="18.7383" cy="18.7383" r="18.7383" transform="matrix(0.866025 0.5 7.53359e-05 1 14.6758 24.9375)" fill="#021433"/>
<circle cx="18.7383" cy="18.7383" r="18.2383" transform="matrix(0.866025 0.5 7.53359e-05 1 11.6758 24.9375)" fill="url(#paint2_linear_979_25063)" stroke="black"/>
<circle cx="18.125" cy="18.125" r="17.625" transform="matrix(0.866025 0.5 7.53359e-05 1 9.78125 26.5244)" fill="url(#paint3_linear_979_25063)" stroke="#021433"/>
<path d="M21.2714 57.9148L16.6721 49.9493L15.1062 50.8408L21.2717 61.5187L34.5047 53.878L32.9495 51.1846L21.2714 57.9148Z" fill="#021433"/>
<defs>
<linearGradient id="paint0_linear_979_25063" x1="51.1891" y1="14.6774" x2="23.4012" y2="93.6497" gradientUnits="userSpaceOnUse">
<stop stop-color="white"/>
<stop offset="0.94" stop-color="white"/>
<stop offset="1" stop-color="white"/>
</linearGradient>
<linearGradient id="paint1_linear_979_25063" x1="16.6024" y1="3.91052" x2="-10.6897" y2="81.5372" gradientUnits="userSpaceOnUse">
<stop stop-color="white"/>
<stop offset="0.94" stop-color="white"/>
<stop offset="1" stop-color="white"/>
</linearGradient>
<linearGradient id="paint2_linear_979_25063" x1="0.0048309" y1="18.7196" x2="37.4718" y2="18.7196" gradientUnits="userSpaceOnUse">
<stop stop-color="#E6FEC0"/>
<stop offset="0.01" stop-color="#E1FEB7"/>
<stop offset="0.07" stop-color="#D0FE97"/>
<stop offset="0.14" stop-color="#C1FE7C"/>
<stop offset="0.22" stop-color="#B5FE66"/>
<stop offset="0.31" stop-color="#ACFE55"/>
<stop offset="0.42" stop-color="#A5FE49"/>
<stop offset="0.57" stop-color="#A2FE42"/>
<stop offset="1" stop-color="#A1FE41"/>
</linearGradient>
<linearGradient id="paint3_linear_979_25063" x1="0.00467279" y1="18.1069" x2="36.2454" y2="18.1069" gradientUnits="userSpaceOnUse">
<stop stop-color="#E6FEC0"/>
<stop offset="0.01" stop-color="#E1FEB7"/>
<stop offset="0.07" stop-color="#D0FE97"/>
<stop offset="0.14" stop-color="#C1FE7C"/>
<stop offset="0.22" stop-color="#B5FE66"/>
<stop offset="0.31" stop-color="#ACFE55"/>
<stop offset="0.42" stop-color="#A5FE49"/>
<stop offset="0.57" stop-color="#A2FE42"/>
<stop offset="1" stop-color="#A1FE41"/>
</linearGradient>
</defs>
</svg>
