<svg width="24" height="24" viewBox="0 0 24 24" fill="none" xmlns="http://www.w3.org/2000/svg">
<path fill-rule="evenodd" clip-rule="evenodd" d="M12 3C8.32118 3 5 5.80289 5 10.2C5 11.5904 5.56087 13.2081 6.82882 15.0774C7.98787 16.7861 9.70272 18.6526 12 20.6765C14.2973 18.6526 16.0121 16.7861 17.1712 15.0774C18.4391 13.2081 19 11.5904 19 10.2C19 5.80289 15.6788 3 12 3ZM3 10.2C3 4.63711 7.27882 1 12 1C16.7212 1 21 4.63711 21 10.2C21 12.1296 20.2259 14.1369 18.8263 16.2001C17.4246 18.2666 15.3532 20.4524 12.6493 22.7606L12 23.3148L11.3507 22.7606C8.64685 20.4524 6.57544 18.2666 5.17368 16.2001C3.77413 14.1369 3 12.1296 3 10.2ZM12 8C10.8954 8 10 8.89543 10 10C10 11.1046 10.8954 12 12 12C13.1046 12 14 11.1046 14 10C14 8.89543 13.1046 8 12 8ZM8 10C8 7.79086 9.79086 6 12 6C14.2091 6 16 7.79086 16 10C16 12.2091 14.2091 14 12 14C9.79086 14 8 12.2091 8 10Z" fill="#021433"/>
</svg>
