<svg width="126" height="22" viewBox="0 0 126 22" fill="none" xmlns="http://www.w3.org/2000/svg">
<path d="M125.997 21.0536C121.893 21.0536 117.87 21.5617 114.036 20.9313C108.597 20.0404 105.323 14.8912 105.902 9.38817C106.433 4.35794 111.093 0.189659 116.371 0.10282C119.523 0.0513598 122.675 0.0931717 125.959 0.0931717V4.67635C123.196 4.67635 120.439 4.65383 117.683 4.68921C116.783 4.69886 115.856 4.74389 114.991 4.96581C112.145 5.69912 110.228 8.3654 110.446 11.1571C110.675 14.0743 113.139 16.5701 116.11 16.7566C117.757 16.8596 119.417 16.7759 121.211 16.7759V12.3825C120.002 12.3825 118.738 12.3343 117.484 12.3986C116.57 12.4468 115.991 12.2056 115.654 11.2826C115.236 10.1504 114.676 9.06976 114.097 7.78004H126V21.0504L125.997 21.0536Z" fill="#1F1F76"/>
<path d="M90.699 21.3724C84.7682 21.3466 80.1465 16.6026 80.1818 10.5786C80.2172 4.76999 85.0095 0.0903278 90.892 0.119274C96.7746 0.148221 101.47 4.96618 101.432 10.9356C101.393 16.7345 96.5944 21.3981 90.699 21.3724ZM90.699 16.8117C94.0922 16.8406 96.8453 14.1454 96.871 10.7715C96.8968 7.51025 94.1597 4.72175 90.8888 4.67672C87.5246 4.63169 84.7554 7.36552 84.7393 10.7426C84.7232 14.0361 87.4216 16.786 90.6958 16.8117H90.699Z" fill="#1F1F76"/>
<path d="M55.0143 0.0903484C51.306 3.77619 47.916 7.14683 44.4103 10.6333C47.9868 14.1776 51.4218 17.5772 54.8535 20.9768C54.8053 21.1054 54.757 21.2341 54.7056 21.3627C52.7662 21.3627 50.8236 21.4142 48.8874 21.3241C48.4467 21.3016 47.9739 20.832 47.6137 20.4718C45.5006 18.3619 43.4133 16.2231 41.3613 14.139C37.9939 15.7471 39.6342 18.7736 39.0617 21.2534H34.6136C34.6136 18.9763 34.575 16.6509 34.649 14.3255C34.6618 13.9332 35.0992 13.5054 35.4241 13.1805C39.4927 9.08946 43.558 4.99515 47.678 0.958739C48.1476 0.498813 48.9356 0.180403 49.6014 0.132159C51.2449 0.0163734 52.9013 0.0935653 55.0111 0.0935653L55.0143 0.0903484Z" fill="#1F1F76"/>
<path d="M77.5089 21.3142H60.7168V0H65.1102V16.7535H77.5089V21.3142Z" fill="#1F1F76"/>
<path d="M24.4404 0.0356445H28.8113V21.2694H24.4404V0.0356445Z" fill="#1F1F76"/>
<path d="M0 4.57337V0.215332H19.0885V4.57337H0Z" fill="#1F1F76"/>
<path d="M7.16602 7.75439H11.6012V21.2724H7.16602V7.75439Z" fill="#1F1F76"/>
<path d="M34.6038 9.52684C34.6038 6.69653 34.6038 4.101 34.6038 1.50869C34.6038 1.0938 34.6424 0.682115 34.6649 0.183594H38.9168C40.3706 4.50947 37.9712 7.09213 34.6006 9.53006L34.6038 9.52684Z" fill="#1F1F76"/>
</svg>
